<svg width="340" height="380" viewBox="0 0 340 380" xmlns="http://www.w3.org/2000/svg">
  <!-- Background tightly wrapped to content -->
  <rect width="100%" height="100%" fill="#111118" rx="12" />

  <!-- AI Bounding Boxes -->
  <rect x="20" y="30" width="180" height="48" fill="#6366F1" fill-opacity="0.1" rx="4" stroke="#6366F1" stroke-width="1.5" stroke-opacity="0.5" stroke-dasharray="4 4"/>
  
  <rect x="20" y="150" width="300" height="130" fill="#6366F1" fill-opacity="0.1" rx="4" stroke="#6366F1" stroke-width="1.5" stroke-opacity="0.5" stroke-dasharray="4 4"/>
  
  <rect x="20" y="310" width="300" height="50" fill="#6366F1" fill-opacity="0.1" rx="4" stroke="#6366F1" stroke-width="1.5" stroke-opacity="0.5" stroke-dasharray="4 4"/>

  <!-- Header: Name -->
  <text x="32" y="52" font-family="sans-serif" font-size="18" font-weight="bold" fill="#F1F5F9">Sarah Jenkins</text>
  <text x="32" y="68" font-family="sans-serif" font-size="10" fill="#94A3B8">sarah.j@example.com • San Francisco, CA</text>

  <!-- Summary skeleton lines -->
  <rect x="24" y="100" width="280" height="6" fill="#475569" rx="3" opacity="0.6"/>
  <rect x="24" y="114" width="250" height="6" fill="#475569" rx="3" opacity="0.6"/>
  <rect x="24" y="128" width="180" height="6" fill="#475569" rx="3" opacity="0.6"/>

  <!-- Experience Section -->
  <text x="32" y="170" font-family="sans-serif" font-size="10" font-weight="bold" fill="#6366F1" letter-spacing="1">EXPERIENCE (5 YEARS)</text>
  
  <text x="32" y="196" font-family="sans-serif" font-size="13" font-weight="bold" fill="#F1F5F9">Senior Frontend Engineer</text>
  <text x="32" y="212" font-family="sans-serif" font-size="10" fill="#94A3B8">TechCorp Inc. • 2021 - Present (3 Years)</text>
  <rect x="32" y="224" width="270" height="4" fill="#475569" rx="2" opacity="0.6"/>
  
  <text x="32" y="250" font-family="sans-serif" font-size="13" font-weight="bold" fill="#F1F5F9">Web Developer</text>
  <text x="32" y="266" font-family="sans-serif" font-size="10" fill="#94A3B8">Startup LLC • 2019 - 2021 (2 Years)</text>

  <!-- Skills Section -->
  <text x="32" y="328" font-family="sans-serif" font-size="10" font-weight="bold" fill="#6366F1" letter-spacing="1">CORE SKILLS</text>
  
  <!-- Skill Tags -->
  <rect x="32" y="340" width="46" height="20" fill="#1A1A24" rx="4" stroke="#2A2A38"/>
  <text x="38" y="354" font-family="monospace" font-size="10" fill="#F1F5F9">React</text>

  <rect x="84" y="340" width="76" height="20" fill="#1A1A24" rx="4" stroke="#2A2A38"/>
  <text x="90" y="354" font-family="monospace" font-size="10" fill="#F1F5F9">TypeScript</text>

  <rect x="166" y="340" width="60" height="20" fill="#1A1A24" rx="4" stroke="#2A2A38"/>
  <text x="172" y="354" font-family="monospace" font-size="10" fill="#F1F5F9">Next.js</text>

  <rect x="232" y="340" width="60" height="20" fill="#1A1A24" rx="4" stroke="#2A2A38"/>
  <text x="238" y="354" font-family="monospace" font-size="10" fill="#F1F5F9">Node.js</text>
</svg>
